# xmcd CD database file
#
# Track frame offsets:
#	150
#	12768
#	28893
#	46745
#	67508
#	84555
#	105318
#	119598
#
# Disc length: 1720 seconds
#
# Revision: 0
# Processed by: cddbd v1.4PL0 Copyright (c) Steve Scherf et al.
# Submitted via: CDex 1.50
#
DISCID=5506b608
DTITLE=Clora Bryant - "Gal With A Horn"
DYEAR=1957
DGENRE=Jazz
TTITLE0=Gypsy In My Soul
TTITLE1=Makin' Whoopee
TTITLE2=Man With The Horn
TTITLE3=Sweet Georgia Brown
TTITLE4=Tea For Two
TTITLE5=This Can't Be Love
TTITLE6=Little Girl Blue
TTITLE7=S'posin'
EXTD=YEAR: 1957
EXTT0=
EXTT1=
EXTT2=
EXTT3=
EXTT4=
EXTT5=
EXTT6=
EXTT7=
PLAYORDER=
